<svg width="58" height="59" viewBox="0 0 58 59" fill="none" xmlns="http://www.w3.org/2000/svg">
<path d="M48.2079 9.24658H13.6324C12.917 9.24658 12.2017 9.48503 11.7248 10.2004L8.14801 14.9694C6.95575 16.6386 8.14801 18.7847 10.0556 18.7847H44.6311C45.3465 18.7847 46.0618 18.5462 46.5387 17.8308L50.1155 13.0618C51.3078 11.3926 50.1155 9.24658 48.2079 9.24658Z" stroke="#FFA503" stroke-width="2.45265" stroke-miterlimit="10"/>
<path d="M10.0556 24.746H44.6311C45.3465 24.746 46.0618 24.9844 46.5387 25.6998L50.1155 30.4688C51.3078 32.138 50.1155 34.284 48.2079 34.284H13.6324C12.917 34.284 12.2017 34.0456 11.7248 33.3302L8.14801 28.5612C6.95575 26.892 8.14801 24.746 10.0556 24.746Z" stroke="#FFA503" stroke-width="2.45265" stroke-miterlimit="10"/>
<path d="M48.2079 40.2452H13.6324C12.917 40.2452 12.2017 40.4836 11.7248 41.199L8.14801 45.968C6.95575 47.6372 8.14801 49.7833 10.0556 49.7833H44.6311C45.3465 49.7833 46.0618 49.5448 46.5387 48.8295L50.1155 44.0604C51.3078 42.3913 50.1155 40.2452 48.2079 40.2452Z" stroke="#FFA503" stroke-width="2.45265" stroke-miterlimit="10"/>
</svg>
