<svg width="59" height="59" viewBox="0 0 59 59" fill="none" xmlns="http://www.w3.org/2000/svg">
<path d="M22.3279 20.8849H33.4984C35.9747 20.8849 37.9832 23.1135 37.9832 25.3697C37.9832 27.8459 35.9747 29.8544 33.4984 29.8544H22.3279V20.8849Z" stroke="#FFA503" stroke-width="4.08774" stroke-miterlimit="10" stroke-linecap="round" stroke-linejoin="round"/>
<path d="M22.3279 29.8268H35.0942C37.9281 29.8268 40.2118 31.8353 40.2118 34.3115C40.2118 36.7878 37.9281 38.7963 35.0942 38.7963H22.3279V29.8268Z" stroke="#FFA503" stroke-width="4.08774" stroke-miterlimit="10" stroke-linecap="round" stroke-linejoin="round"/>
<path d="M30.1421 38.7688V43.2536" stroke="#FFA503" stroke-width="4.08774" stroke-miterlimit="10" stroke-linecap="round" stroke-linejoin="round"/>
<path d="M24.5566 38.7688V43.2536" stroke="#FFA503" stroke-width="4.08774" stroke-miterlimit="10" stroke-linecap="round" stroke-linejoin="round"/>
<path d="M30.1421 16.4001V20.8849" stroke="#FFA503" stroke-width="4.08774" stroke-miterlimit="10" stroke-linecap="round" stroke-linejoin="round"/>
<path d="M24.5566 16.4001V20.8849" stroke="#FFA503" stroke-width="4.08774" stroke-miterlimit="10" stroke-linecap="round" stroke-linejoin="round"/>
<path d="M26.5654 20.8849H18.7515" stroke="#FFA503" stroke-width="4.08774" stroke-miterlimit="10" stroke-linecap="round" stroke-linejoin="round"/>
<path d="M26.5654 38.7688H18.7515" stroke="#FFA503" stroke-width="4.08774" stroke-miterlimit="10" stroke-linecap="round" stroke-linejoin="round"/>
<path d="M29.4816 53.3602C42.651 53.3602 53.3268 42.6843 53.3268 29.515C53.3268 16.3457 42.651 5.66982 29.4816 5.66982C16.3123 5.66982 5.63647 16.3457 5.63647 29.515C5.63647 42.6843 16.3123 53.3602 29.4816 53.3602Z" stroke="#FFA503" stroke-width="4.08774" stroke-miterlimit="10"/>
</svg>
