<svg width="58" height="59" viewBox="0 0 58 59" fill="none" xmlns="http://www.w3.org/2000/svg">
<path d="M16.4829 22.5999L27.9286 17.5924C28.4055 17.3539 28.8824 17.3539 29.5978 17.5924L41.0434 22.5999C41.9973 23.0768 42.9511 21.8845 42.2357 20.9307L30.3131 6.38517C29.5978 5.43136 28.1671 5.43136 27.4517 6.38517L15.5291 20.9307C14.5753 21.8845 15.5291 23.0768 16.4829 22.5999Z" stroke="#FFA503" stroke-width="3.27019" stroke-miterlimit="10" stroke-linecap="round" stroke-linejoin="round"/>
<path d="M16.4829 36.4301L27.9286 41.4376C28.4055 41.676 28.8824 41.676 29.5978 41.4376L41.0434 36.4301C41.9973 35.9532 42.9511 37.1454 42.2357 38.0992L30.3131 52.6448C29.5978 53.5986 28.1671 53.5986 27.4517 52.6448L15.5291 38.0992C14.5753 37.1454 15.5291 35.9532 16.4829 36.4301Z" stroke="#FFA503" stroke-width="3.27019" stroke-miterlimit="10" stroke-linecap="round" stroke-linejoin="round"/>
<path d="M28.6441 23.3152L16.2446 29.515L28.6441 35.7147L41.0436 29.515L28.6441 23.3152Z" stroke="#FFA503" stroke-width="3.27019" stroke-miterlimit="10" stroke-linecap="round" stroke-linejoin="round"/>
</svg>
