<svg width="59" height="59" viewBox="0 0 59 59" fill="none" xmlns="http://www.w3.org/2000/svg">
<path d="M29.4575 5.66982L15.1504 19.9769L19.9194 24.746L29.4575 15.2079L38.9956 24.746L43.7646 19.9769L29.4575 5.66982Z" stroke="#FFA503" stroke-width="3.27019" stroke-miterlimit="10" stroke-linecap="round" stroke-linejoin="round"/>
<path d="M29.4575 53.3603L15.1504 39.0532L19.9194 34.2841L29.4575 43.8222L38.9956 34.2841L43.7646 39.0532L29.4575 53.3603Z" stroke="#FFA503" stroke-width="3.27019" stroke-miterlimit="10" stroke-linecap="round" stroke-linejoin="round"/>
<path d="M48.021 24.0354L42.6255 29.4309L48.021 34.8264L53.4165 29.4309L48.021 24.0354Z" stroke="#FFA503" stroke-width="3.27019" stroke-miterlimit="10" stroke-linecap="round" stroke-linejoin="round"/>
<path d="M11.061 24.0349L5.66553 29.4304L11.061 34.8259L16.4565 29.4304L11.061 24.0349Z" stroke="#FFA503" stroke-width="3.27019" stroke-miterlimit="10" stroke-linecap="round" stroke-linejoin="round"/>
<path d="M29.288 23.6137L23.3867 29.515L29.288 35.4163L35.1894 29.515L29.288 23.6137Z" stroke="#FFA503" stroke-width="3.27019" stroke-miterlimit="10" stroke-linecap="round" stroke-linejoin="round"/>
</svg>
