<svg width="46" height="46" viewBox="0 0 46 46" fill="none" xmlns="http://www.w3.org/2000/svg">
<path d="M25.6044 39.6563H19.9839" stroke="white" stroke-width="2.81027" stroke-linecap="round" stroke-linejoin="round"/>
<path d="M21.9159 3.79033C18.5787 6.46009 7.42543 17.1391 17.1736 34.0359H28.4147C37.9696 17.1391 26.9744 6.47766 23.6723 3.79033C23.4259 3.58456 23.1151 3.47183 22.7941 3.47183C22.4731 3.47183 22.1623 3.58456 21.9159 3.79033Z" stroke="white" stroke-width="2.81027" stroke-linecap="round" stroke-linejoin="round"/>
<path d="M13.2921 19.879L7.77692 26.4832C7.63798 26.6453 7.53995 26.8383 7.49105 27.0462C7.44215 27.254 7.44381 27.4705 7.4959 27.6775L9.6563 37.4608C9.70843 37.6934 9.81885 37.9088 9.97718 38.087C10.1355 38.2651 10.3365 38.4 10.5614 38.479C10.7862 38.5581 11.0274 38.5786 11.2624 38.5388C11.4974 38.4989 11.7183 38.4 11.9045 38.2512L17.1738 34.0358" stroke="white" stroke-width="2.81027" stroke-linecap="round" stroke-linejoin="round"/>
<path d="M32.1909 19.7387L37.8114 26.4833C37.9503 26.6454 38.0484 26.8385 38.0973 27.0463C38.1462 27.2541 38.1445 27.4707 38.0924 27.6777L35.932 37.461C35.8799 37.6935 35.7695 37.909 35.6112 38.0871C35.4528 38.2652 35.2518 38.4002 35.027 38.4792C34.8021 38.5582 34.5609 38.5788 34.3259 38.5389C34.091 38.4991 33.87 38.4001 33.6838 38.2514L28.4146 34.036" stroke="white" stroke-width="2.81027" stroke-linecap="round" stroke-linejoin="round"/>
<path d="M22.7942 19.282C23.9583 19.282 24.9019 18.3383 24.9019 17.1743C24.9019 16.0102 23.9583 15.0666 22.7942 15.0666C21.6302 15.0666 20.6865 16.0102 20.6865 17.1743C20.6865 18.3383 21.6302 19.282 22.7942 19.282Z" fill="white"/>
</svg>
