<svg width="32" height="28" viewBox="0 0 32 28" fill="none" xmlns="http://www.w3.org/2000/svg">
<path d="M23.6716 27.6394V25.6936C23.6716 25.4381 23.6225 25.1851 23.527 24.949C23.4316 24.713 23.2917 24.4985 23.1154 24.3177C22.9389 24.137 22.7295 23.9937 22.4992 23.896C22.2687 23.7982 22.0218 23.7478 21.7724 23.7478H14.1749C11.6564 23.7478 9.24099 22.7229 7.46009 20.8983C5.6792 19.0738 4.67869 16.5993 4.67865 14.0191C4.67865 12.7415 4.92428 11.4764 5.40152 10.296C5.87875 9.11564 6.57824 8.04315 7.46006 7.13974C8.34187 6.23634 9.38872 5.51974 10.5409 5.03083C11.693 4.54191 12.9279 4.29029 14.1749 4.29031H21.7718C22.0212 4.29038 22.2683 4.24011 22.4988 4.14237C22.7292 4.04461 22.9388 3.9013 23.1151 3.72061C23.2916 3.53991 23.4315 3.32538 23.527 3.08927C23.6225 2.85317 23.6716 2.6001 23.6716 2.34453V0.398743H14.1753C12.4295 0.398743 10.7007 0.751044 9.08773 1.43553C7.47476 2.12002 6.00918 3.12329 4.77468 4.38805C3.54017 5.65282 2.5609 7.15432 1.8928 8.80682C1.2247 10.4593 0.880841 12.2304 0.880859 14.0191C0.880859 17.6313 2.28152 21.0958 4.77471 23.6501C7.26791 26.2044 10.6494 27.6394 14.1753 27.6394H23.6716Z" fill="url(#paint0_linear_13_578)"/>
<path d="M8.47729 14.0191C8.47729 15.5672 9.07757 17.0519 10.1461 18.1465C11.2145 19.2412 12.6637 19.8561 14.1748 19.8561H23.6717C24.6792 19.8561 25.6452 20.2662 26.3575 20.996C27.0699 21.7257 27.4701 22.7156 27.4701 23.7477V27.6393H31.2686V23.7478C31.2686 21.6837 30.4683 19.7041 29.0436 18.2444C27.6188 16.7848 25.6865 15.9649 23.6717 15.9649H14.1751C13.6713 15.9649 13.1883 15.7598 12.8321 15.395C12.4759 15.0301 12.2758 14.5351 12.2758 14.0191C12.2758 13.503 12.4759 13.0081 12.8321 12.6432C13.1883 12.2783 13.6713 12.0733 14.1751 12.0733H23.6717C25.6865 12.0733 27.6188 11.2533 29.0436 9.7937C30.4683 8.33412 31.2686 6.35448 31.2686 4.29031V0.398743H27.4695V4.29031C27.4695 5.32227 27.0694 6.31199 26.3573 7.04175C25.6451 7.77151 24.6791 8.18157 23.6717 8.18173H14.1751C13.4268 8.18168 12.6859 8.33264 11.9946 8.62599C11.3033 8.91933 10.6751 9.34931 10.1461 9.89136C9.61696 10.4334 9.19727 11.0769 8.91094 11.7852C8.62462 12.4934 8.47727 13.2525 8.47729 14.0191Z" fill="url(#paint1_linear_13_578)"/>
<defs>
<linearGradient id="paint0_linear_13_578" x1="4.32226" y1="14.0191" x2="33.5629" y2="14.0191" gradientUnits="userSpaceOnUse">
<stop stop-color="#F54A48"/>
<stop offset="1" stop-color="#FA982F"/>
</linearGradient>
<linearGradient id="paint1_linear_13_578" x1="4.30649" y1="14.019" x2="33.5705" y2="14.019" gradientUnits="userSpaceOnUse">
<stop stop-color="#FFA503"/>
<stop offset="1" stop-color="#FA982F"/>
</linearGradient>
</defs>
</svg>
